<svg width="28" height="28" viewBox="0 0 28 28" fill="none" xmlns="http://www.w3.org/2000/svg">
<path d="M13.9942 5.83087C13.9955 5.36444 13.9036 4.90243 13.7238 4.47204C13.5441 4.04164 13.28 3.65154 12.9473 3.32469C12.6145 2.99783 12.2197 2.74081 11.7862 2.56875C11.3526 2.39669 10.8891 2.31306 10.4227 2.32278C9.9564 2.3325 9.49671 2.43538 9.07072 2.62535C8.64472 2.81533 8.26101 3.08857 7.94216 3.42901C7.62331 3.76945 7.37575 4.17021 7.21405 4.60773C7.05235 5.04524 6.97977 5.51067 7.00058 5.97664C6.3151 6.1529 5.67872 6.48283 5.13963 6.94144C4.60054 7.40006 4.17287 7.97533 3.88903 8.6237C3.60519 9.27207 3.47261 9.97652 3.50133 10.6837C3.53005 11.3909 3.71932 12.0823 4.05481 12.7055C3.46493 13.1847 3.00108 13.8008 2.7036 14.5002C2.40612 15.1996 2.28403 15.961 2.34795 16.7183C2.41186 17.4756 2.65984 18.2059 3.07033 18.8455C3.48081 19.4851 4.04136 20.0147 4.70321 20.3883C4.62148 21.0207 4.67025 21.663 4.84652 22.2758C5.02278 22.8886 5.32279 23.4587 5.72803 23.9509C6.13326 24.4432 6.63511 24.8472 7.20259 25.1379C7.77006 25.4286 8.39111 25.5999 9.02738 25.6412C9.66365 25.6825 10.3016 25.5929 10.9019 25.3779C11.5022 25.163 12.052 24.8273 12.5175 24.3915C12.983 23.9558 13.3541 23.4292 13.6081 22.8444C13.8621 22.2595 13.9935 21.6288 13.9942 20.9912V5.83087Z" stroke="white" stroke-width="2.33236" stroke-linecap="round" stroke-linejoin="round"/>
<path d="M13.9942 5.83087C13.9928 5.36444 14.0847 4.90243 14.2645 4.47204C14.4443 4.04164 14.7083 3.65154 15.0411 3.32469C15.3738 2.99783 15.7686 2.74081 16.2021 2.56875C16.6357 2.39669 17.0993 2.31306 17.5656 2.32278C18.0319 2.3325 18.4916 2.43538 18.9176 2.62535C19.3436 2.81533 19.7273 3.08857 20.0462 3.42901C20.365 3.76945 20.6126 4.17021 20.7743 4.60773C20.936 5.04524 21.0086 5.51067 20.9877 5.97664C21.6732 6.1529 22.3096 6.48283 22.8487 6.94144C23.3878 7.40006 23.8155 7.97533 24.0993 8.6237C24.3831 9.27207 24.5157 9.97652 24.487 10.6837C24.4583 11.3909 24.269 12.0823 23.9335 12.7055C24.5234 13.1847 24.9872 13.8008 25.2847 14.5002C25.5822 15.1996 25.7043 15.961 25.6404 16.7183C25.5765 17.4756 25.3285 18.2059 24.918 18.8455C24.5075 19.4851 23.947 20.0147 23.2851 20.3883C23.3668 21.0207 23.3181 21.663 23.1418 22.2758C22.9655 22.8886 22.6655 23.4587 22.2603 23.9509C21.8551 24.4432 21.3532 24.8472 20.7857 25.1379C20.2183 25.4286 19.5972 25.5999 18.9609 25.6412C18.3247 25.6825 17.6867 25.5929 17.0864 25.3779C16.4861 25.163 15.9363 24.8273 15.4708 24.3915C15.0054 23.9558 14.6342 23.4292 14.3802 22.8444C14.1262 22.2595 13.9948 21.6288 13.9942 20.9912V5.83087Z" stroke="white" stroke-width="2.33236" stroke-linecap="round" stroke-linejoin="round"/>
<path d="M17.4927 15.1603C16.5136 14.8159 15.6587 14.1889 15.0359 13.3586C14.4132 12.5283 14.0507 11.532 13.9941 10.4956C13.9376 11.532 13.5751 12.5283 12.9524 13.3586C12.3296 14.1889 11.4747 14.8159 10.4956 15.1603" stroke="white" stroke-width="2.33236" stroke-linecap="round" stroke-linejoin="round"/>
<path d="M20.5236 7.58006C20.8059 7.09095 20.9655 6.54078 20.9889 5.97656" stroke="white" stroke-width="2.33236" stroke-linecap="round" stroke-linejoin="round"/>
<path d="M7.00061 5.97656C7.02367 6.54068 7.18292 7.09084 7.46475 7.58006" stroke="white" stroke-width="2.33236" stroke-linecap="round" stroke-linejoin="round"/>
<path d="M4.05481 12.7067C4.26815 12.5329 4.49645 12.3784 4.73703 12.2449" stroke="white" stroke-width="2.33236" stroke-linecap="round" stroke-linejoin="round"/>
<path d="M23.2513 12.2449C23.4919 12.3784 23.7202 12.5329 23.9336 12.7067" stroke="white" stroke-width="2.33236" stroke-linecap="round" stroke-linejoin="round"/>
<path d="M6.99706 20.9912C6.19337 20.9915 5.40321 20.7842 4.70319 20.3894" stroke="white" stroke-width="2.33236" stroke-linecap="round" stroke-linejoin="round"/>
<path d="M23.2851 20.3894C22.5851 20.7842 21.795 20.9915 20.9913 20.9912" stroke="white" stroke-width="2.33236" stroke-linecap="round" stroke-linejoin="round"/>
</svg>
