<svg width="28" height="28" viewBox="0 0 28 28" fill="none" xmlns="http://www.w3.org/2000/svg">
<path d="M13.9941 25.656C20.4348 25.656 25.656 20.4348 25.656 13.9942C25.656 7.55357 20.4348 2.3324 13.9941 2.3324C7.55351 2.3324 2.33234 7.55357 2.33234 13.9942C2.33234 20.4348 7.55351 25.656 13.9941 25.656Z" stroke="white" stroke-width="2.33236" stroke-linecap="round" stroke-linejoin="round"/>
<path d="M13.9942 20.9912C17.8585 20.9912 20.9912 17.8585 20.9912 13.9942C20.9912 10.1298 17.8585 6.99707 13.9942 6.99707C10.1298 6.99707 6.99707 10.1298 6.99707 13.9942C6.99707 17.8585 10.1298 20.9912 13.9942 20.9912Z" stroke="white" stroke-width="2.33236" stroke-linecap="round" stroke-linejoin="round"/>
<path d="M13.9942 16.3266C15.2823 16.3266 16.3265 15.2824 16.3265 13.9942C16.3265 12.7061 15.2823 11.6619 13.9942 11.6619C12.706 11.6619 11.6618 12.7061 11.6618 13.9942C11.6618 15.2824 12.706 16.3266 13.9942 16.3266Z" stroke="white" stroke-width="2.33236" stroke-linecap="round" stroke-linejoin="round"/>
</svg>
