<svg width="122" height="122" viewBox="0 0 122 122" fill="none" xmlns="http://www.w3.org/2000/svg">
<g filter="url(#filter0_d_34_61)">
<path d="M20.9146 60.9065C20.9146 38.8196 38.8196 20.9146 60.9066 20.9146C82.9936 20.9146 100.899 38.8196 100.899 60.9065C100.899 82.9935 82.9936 100.899 60.9066 100.899C38.8196 100.899 20.9146 82.9935 20.9146 60.9065Z" fill="url(#paint0_linear_34_61)" shape-rendering="crispEdges"/>
<path d="M72.5598 75.8917V72.5598C72.5598 70.7924 71.8577 69.0974 70.608 67.8477C69.3582 66.598 67.6632 65.8959 65.8959 65.8959H55.9C54.1327 65.8959 52.4377 66.598 51.188 67.8477C49.9382 69.0974 49.2361 70.7924 49.2361 72.5598V75.8917" stroke="white" stroke-width="3.33195" stroke-linecap="round" stroke-linejoin="round"/>
<path d="M60.898 59.232C64.5783 59.232 67.5619 56.2484 67.5619 52.5681C67.5619 48.8877 64.5783 45.9042 60.898 45.9042C57.2176 45.9042 54.2341 48.8877 54.2341 52.5681C54.2341 56.2484 57.2176 59.232 60.898 59.232Z" stroke="white" stroke-width="3.33195" stroke-linecap="round" stroke-linejoin="round"/>
</g>
<defs>
<filter id="filter0_d_34_61" x="1.14441e-05" y="-4.95911e-05" width="121.813" height="121.813" filterUnits="userSpaceOnUse" color-interpolation-filters="sRGB">
<feFlood flood-opacity="0" result="BackgroundImageFix"/>
<feColorMatrix in="SourceAlpha" type="matrix" values="0 0 0 0 0 0 0 0 0 0 0 0 0 0 0 0 0 0 127 0" result="hardAlpha"/>
<feOffset/>
<feGaussianBlur stdDeviation="10.4573"/>
<feComposite in2="hardAlpha" operator="out"/>
<feColorMatrix type="matrix" values="0 0 0 0 0.658824 0 0 0 0 0.333333 0 0 0 0 0.968627 0 0 0 0.514 0"/>
<feBlend mode="normal" in2="BackgroundImageFix" result="effect1_dropShadow_34_61"/>
<feBlend mode="normal" in="SourceGraphic" in2="effect1_dropShadow_34_61" result="shape"/>
</filter>
<linearGradient id="paint0_linear_34_61" x1="20.9146" y1="20.9146" x2="100.899" y2="100.899" gradientUnits="userSpaceOnUse">
<stop stop-color="#9810FA"/>
<stop offset="1" stop-color="#0092B8"/>
</linearGradient>
</defs>
</svg>
