<svg width="174" height="174" viewBox="0 0 174 174" fill="none" xmlns="http://www.w3.org/2000/svg">
<g filter="url(#filter0_d_34_26)">
<path d="M38.8399 86.8372C38.8399 60.329 60.329 38.8398 86.8372 38.8398C113.345 38.8398 134.835 60.329 134.835 86.8372C134.835 113.345 113.345 134.834 86.8372 134.834C60.329 134.834 38.8399 113.345 38.8399 86.8372Z" fill="url(#paint0_linear_34_26)" shape-rendering="crispEdges"/>
<path d="M70.8294 90.8282C70.451 90.8295 70.0799 90.7234 69.7594 90.5222C69.4389 90.321 69.182 90.033 69.0186 89.6916C68.8553 89.3502 68.7921 88.9695 68.8365 88.5937C68.881 88.2178 69.0311 87.8623 69.2695 87.5684L89.0684 67.1695C89.2169 66.9981 89.4193 66.8823 89.6423 66.841C89.8654 66.7998 90.0958 66.8356 90.2958 66.9426C90.4958 67.0495 90.6535 67.2213 90.743 67.4297C90.8325 67.6381 90.8485 67.8708 90.7883 68.0895L86.9485 80.1288C86.8353 80.4318 86.7973 80.7578 86.8377 81.0788C86.8782 81.3997 86.9959 81.7061 87.1807 81.9716C87.3656 82.237 87.612 82.4537 87.899 82.603C88.186 82.7523 88.5049 82.8297 88.8284 82.8287H102.828C103.206 82.8274 103.577 82.9335 103.898 83.1347C104.218 83.3359 104.475 83.6239 104.638 83.9653C104.802 84.3067 104.865 84.6874 104.821 85.0632C104.776 85.4391 104.626 85.7946 104.388 86.0885L84.5887 106.487C84.4401 106.659 84.2378 106.775 84.0147 106.816C83.7917 106.857 83.5613 106.821 83.3613 106.714C83.1613 106.607 83.0036 106.436 82.9141 106.227C82.8246 106.019 82.8086 105.786 82.8688 105.567L86.7085 93.5281C86.8218 93.225 86.8598 92.8991 86.8194 92.5781C86.7789 92.2571 86.6612 91.9508 86.4764 91.6853C86.2915 91.4198 86.045 91.2032 85.758 91.0539C85.4711 90.9046 85.1521 90.8272 84.8287 90.8282H70.8294Z" stroke="white" stroke-width="3.99978" stroke-linecap="round" stroke-linejoin="round"/>
<g opacity="0.30851">
<path d="M35.1936 86.8372C35.1936 58.3152 58.3152 35.1936 86.8372 35.1936C115.359 35.1936 138.481 58.3152 138.481 86.8372C138.481 115.359 115.359 138.481 86.8372 138.481C58.3152 138.481 35.1936 115.359 35.1936 86.8372Z" fill="url(#paint1_linear_34_26)"/>
</g>
</g>
<defs>
<filter id="filter0_d_34_26" x="3.8147e-06" y="3.8147e-06" width="173.674" height="173.674" filterUnits="userSpaceOnUse" color-interpolation-filters="sRGB">
<feFlood flood-opacity="0" result="BackgroundImageFix"/>
<feColorMatrix in="SourceAlpha" type="matrix" values="0 0 0 0 0 0 0 0 0 0 0 0 0 0 0 0 0 0 127 0" result="hardAlpha"/>
<feOffset/>
<feGaussianBlur stdDeviation="17.5968"/>
<feComposite in2="hardAlpha" operator="out"/>
<feColorMatrix type="matrix" values="0 0 0 0 0.658824 0 0 0 0 0.333333 0 0 0 0 0.968627 0 0 0 0.616 0"/>
<feBlend mode="normal" in2="BackgroundImageFix" result="effect1_dropShadow_34_26"/>
<feBlend mode="normal" in="SourceGraphic" in2="effect1_dropShadow_34_26" result="shape"/>
</filter>
<linearGradient id="paint0_linear_34_26" x1="38.8399" y1="38.8398" x2="134.835" y2="134.834" gradientUnits="userSpaceOnUse">
<stop stop-color="#9810FA"/>
<stop offset="1" stop-color="#0092B8"/>
</linearGradient>
<linearGradient id="paint1_linear_34_26" x1="35.1936" y1="35.1936" x2="138.481" y2="138.481" gradientUnits="userSpaceOnUse">
<stop stop-color="#C27AFF"/>
<stop offset="1" stop-color="#00D3F2"/>
</linearGradient>
</defs>
</svg>

