<svg width="28" height="28" viewBox="0 0 28 28" fill="none" xmlns="http://www.w3.org/2000/svg">
<path d="M4.66473 16.3266C4.44404 16.3273 4.22768 16.2654 4.04076 16.1481C3.85385 16.0308 3.70407 15.8628 3.60881 15.6638C3.51355 15.4647 3.47673 15.2427 3.50263 15.0235C3.52852 14.8044 3.61607 14.5971 3.7551 14.4257L15.3003 2.53063C15.3869 2.43067 15.5049 2.36312 15.635 2.33907C15.765 2.31502 15.8994 2.3359 16.016 2.39828C16.1326 2.46066 16.2246 2.56083 16.2768 2.68236C16.329 2.80389 16.3383 2.93955 16.3032 3.06708L14.0641 10.0875C13.9981 10.2642 13.9759 10.4543 13.9995 10.6414C14.0231 10.8286 14.0917 11.0072 14.1995 11.162C14.3073 11.3168 14.4511 11.4432 14.6184 11.5302C14.7857 11.6173 14.9717 11.6624 15.1604 11.6618H23.3236C23.5443 11.6611 23.7607 11.723 23.9476 11.8403C24.1345 11.9576 24.2843 12.1256 24.3795 12.3246C24.4748 12.5237 24.5116 12.7457 24.4857 12.9649C24.4598 13.184 24.3723 13.3913 24.2332 13.5627L12.6881 25.4577C12.6014 25.5577 12.4834 25.6253 12.3534 25.6493C12.2233 25.6734 12.089 25.6525 11.9723 25.5901C11.8557 25.5277 11.7638 25.4275 11.7116 25.306C11.6594 25.1845 11.6501 25.0488 11.6851 24.9213L13.9242 17.9009C13.9902 17.7242 14.0124 17.5341 13.9888 17.347C13.9652 17.1598 13.8966 16.9812 13.7888 16.8263C13.681 16.6715 13.5373 16.5452 13.3699 16.4581C13.2026 16.3711 13.0166 16.3259 12.828 16.3266H4.66473Z" stroke="white" stroke-width="2.33236" stroke-linecap="round" stroke-linejoin="round"/>
</svg>
