<svg width="28" height="28" viewBox="0 0 28 28" fill="none" xmlns="http://www.w3.org/2000/svg">
<path d="M23.3236 15.1603C23.3236 20.9912 19.242 23.9067 14.3907 25.5976C14.1366 25.6837 13.8607 25.6796 13.6093 25.586C8.74637 23.9067 4.66473 20.9912 4.66473 15.1603V6.99703C4.66473 6.68774 4.7876 6.39112 5.0063 6.17242C5.225 5.95372 5.52162 5.83085 5.83091 5.83085C8.16328 5.83085 11.0787 4.43144 13.1079 2.65884C13.3549 2.44776 13.6692 2.33179 13.9942 2.33179C14.3191 2.33179 14.6334 2.44776 14.8805 2.65884C16.9213 4.4431 19.8251 5.83085 22.1574 5.83085C22.4667 5.83085 22.7634 5.95372 22.9821 6.17242C23.2008 6.39112 23.3236 6.68774 23.3236 6.99703V15.1603Z" stroke="white" stroke-width="2.33236" stroke-linecap="round" stroke-linejoin="round"/>
</svg>
