<svg width="16" height="16" viewBox="0 0 16 16" fill="none" xmlns="http://www.w3.org/2000/svg">
<g clip-path="url(#clip0_34_32)">
<path d="M6.62191 10.3291C6.56241 10.0984 6.44221 9.88798 6.2738 9.71957C6.10539 9.55116 5.89492 9.43095 5.66431 9.37146L1.57601 8.31723C1.50626 8.29743 1.44487 8.25542 1.40116 8.19758C1.35744 8.13973 1.33379 8.0692 1.33379 7.9967C1.33379 7.92419 1.35744 7.85367 1.40116 7.79582C1.44487 7.73797 1.50626 7.69596 1.57601 7.67616L5.66431 6.62127C5.89484 6.56183 6.10525 6.44173 6.27365 6.27344C6.44206 6.10516 6.56231 5.89483 6.62191 5.66434L7.67613 1.57604C7.69573 1.50601 7.7377 1.44432 7.79563 1.40038C7.85357 1.35643 7.92429 1.33264 7.997 1.33264C8.06972 1.33264 8.14044 1.35643 8.19837 1.40038C8.2563 1.44432 8.29827 1.50601 8.31787 1.57604L9.37143 5.66434C9.43092 5.89495 9.55113 6.10542 9.71954 6.27383C9.88795 6.44224 10.0984 6.56244 10.329 6.62194L14.4173 7.6755C14.4876 7.69489 14.5496 7.73681 14.5938 7.79483C14.638 7.85285 14.6619 7.92377 14.6619 7.9967C14.6619 8.06963 14.638 8.14054 14.5938 8.19856C14.5496 8.25658 14.4876 8.29851 14.4173 8.3179L10.329 9.37146C10.0984 9.43095 9.88795 9.55116 9.71954 9.71957C9.55113 9.88798 9.43092 10.0984 9.37143 10.3291L8.3172 14.4174C8.2976 14.4874 8.25564 14.5491 8.1977 14.593C8.13977 14.637 8.06905 14.6608 7.99633 14.6608C7.92362 14.6608 7.8529 14.637 7.79497 14.593C7.73703 14.5491 7.69507 14.4874 7.67547 14.4174L6.62191 10.3291Z" stroke="#C27AFF" stroke-width="1.33278" stroke-linecap="round" stroke-linejoin="round"/>
<path d="M13.3278 1.99915V4.6647" stroke="#C27AFF" stroke-width="1.33278" stroke-linecap="round" stroke-linejoin="round"/>
<path d="M14.6606 3.33191H11.995" stroke="#C27AFF" stroke-width="1.33278" stroke-linecap="round" stroke-linejoin="round"/>
<path d="M2.66556 11.3286V12.6614" stroke="#C27AFF" stroke-width="1.33278" stroke-linecap="round" stroke-linejoin="round"/>
<path d="M3.33195 11.995H1.99917" stroke="#C27AFF" stroke-width="1.33278" stroke-linecap="round" stroke-linejoin="round"/>
</g>
<defs>
<clipPath id="clip0_34_32">
<rect width="15.9933" height="15.9933" fill="white"/>
</clipPath>
</defs>
</svg>

